<?xml version="1.0" encoding="utf-8"?>
<!-- Generator: Adobe Illustrator 23.0.1, SVG Export Plug-In . SVG Version: 6.00 Build 0)  -->
<svg version="1.1" id="Layer_1" xmlns="http://www.w3.org/2000/svg" xmlns:xlink="http://www.w3.org/1999/xlink" x="0px" y="0px"
	 viewBox="0 0 1440 1296" style="enable-background:new 0 0 1440 1296;" xml:space="preserve">
<style type="text/css">
	.st0{fill:#FFFFFF;}
</style>
<g>
	<g>
		<path class="st0" d="M1046,865c-216.7,0-433.3,0-650,0c0-144.3,0-288.7,0-433c216.7,0,433.3,0,650,0
			C1046,576.3,1046,720.7,1046,865z M1033.9,787.9c0-93.1,0-185.6,0-278.1c-2.5-0.2-4.6-0.4-6.6-0.6c0-1.8,0-3.3,0-5
			c2.3-0.1,4.4-0.3,6.7-0.4c0-5.3,0-10.4,0-15.9c-5.9,0-11.5,0-17,0c0-4.6,0-8.6,0-12.7c0.5,0,0.9,0,1.4-0.1c0.2,3.5,0.4,7,0.6,10.5
			c5.3,0,10.2,0,15.1,0c0-5.3,0-10.2,0-15.4c-3.5-0.2-6.7-0.4-10-0.6c0-0.5,0-1.1,0-1.6c3.3,0,6.6,0,9.9,0c0-5.7,0-10.7,0-15.7
			c-5.2,0-10.1,0-15.1,0c-0.3,3.6-0.5,6.9-0.8,10.1c-0.5,0-1,0-1.5,0c-0.2-3.3-0.4-6.7-0.6-10c-5.4,0-10.4,0-15.5,0
			c0,5.3,0,10.2,0,15.4c3.6,0.2,7,0.4,10.3,0.6c0,0.4,0,0.8-0.1,1.1c-4,0-8.1,0-12.6,0c0-5.8,0-11.4,0-17.2c-5.5,0-10.6,0-15.7,0
			c-0.2,2.4-0.5,4.5-0.7,6.8c-1.8-0.1-3.2-0.2-4.7-0.3c-0.2-2.4-0.4-4.5-0.6-6.5c-164.3,0-328.2,0-492.2,0c-0.2,2.4-0.4,4.5-0.5,6.8
			c-1.9-0.1-3.5-0.2-5.3-0.3c-0.2-2.4-0.4-4.5-0.5-6.4c-5.5,0-10.5,0-16,0c0,6,0,11.6,0,16.9c-4.5,0-8.5,0-12.5,0
			c0-0.4,0.1-0.9,0.1-1.3c3.4,0,6.8,0,10.2,0c0-5.7,0-10.7,0-15.6c-5.3,0-10.3,0-15.4,0c-0.2,3.6-0.3,6.8-0.5,10.1c-0.5,0-1,0-1.5,0
			c0-3.3,0-6.6,0-10c-5.8,0-10.8,0-15.9,0c0,5.3,0,10.2,0,15.4c3.7,0.3,7.1,0.5,10.4,0.7c0,0.5,0,1.1-0.1,1.6c-3.5,0-7,0-10.3,0
			c0,5.7,0,10.6,0,15.7c5.3,0,10.2,0,15.3,0c0.2-3.7,0.5-7.1,0.7-10.5c0.4,0,0.8,0.1,1.2,0.1c0,4.1,0,8.3,0,12.8
			c-5.9,0-11.5,0-17.2,0c0,5.5,0,10.5,0,15.6c2.5,0.2,4.6,0.4,6.9,0.6c-0.1,1.8-0.2,3.3-0.3,4.9c-2.5,0.2-4.7,0.5-6.6,0.7
			c0,93,0,185.4,0,277.8c2.4,0.2,4.4,0.3,6.4,0.4c0,1.8,0,3.4,0,4.9c-2.5,0.2-4.5,0.4-6.5,0.6c0,5.5,0,10.4,0,15.7c6,0,11.6,0,17,0
			c0,4.5,0,8.5,0,12.5c-0.4,0-0.8,0-1.1,0c-0.2-3.4-0.3-6.7-0.5-10.2c-5.4,0-10.4,0-15.4,0c0,5.4,0,10.3,0,15.3
			c3.7,0.2,7,0.4,10.3,0.6c0,0.5,0,1,0,1.4c-3.5,0.2-6.9,0.4-10.3,0.6c0,5.4,0,10.3,0,15.2c5.4,0,10.4,0,15.4,0
			c0.2-3.6,0.4-6.7,0.6-9.8c0.5,0,0.9,0,1.4,0c0.2,3.3,0.3,6.6,0.5,9.9c5.5,0,10.4,0,15.4,0c0-5.3,0-10.3,0-15.4
			c-3.6-0.3-6.8-0.5-10-0.7c0-0.4,0.1-0.8,0.1-1.3c4,0,8,0,12.4,0c0,5.9,0,11.5,0,17.3c5.5,0,10.6,0,15.7,0c0.2-2.4,0.4-4.5,0.6-6.9
			c2,0.1,3.5,0.2,5.2,0.3c0.2,2.4,0.4,4.5,0.6,6.6c164.2,0,328.1,0,492.2,0c0.2-2.4,0.5-4.5,0.7-6.6c1.7,0,3.2,0,4.7,0
			c0.2,2.3,0.5,4.4,0.7,6.5c5.4,0,10.4,0,15.9,0c0-6,0-11.6,0-17.1c4.4,0,8.3,0,12.3,0c0,0.4,0,0.8,0.1,1.2
			c-3.3,0.2-6.6,0.4-10.2,0.7c0,5.2,0,10.1,0,15.3c5.3,0,10.3,0,15.4,0c0.3-3.5,0.6-6.7,0.8-9.9c0.6,0,1.2,0,1.8,0.1
			c0,3.3,0,6.6,0,9.9c5.6,0,10.4,0,15.3,0c0-5.3,0-10.3,0-15.4c-3.5-0.3-6.6-0.5-9.7-0.7c0-0.5,0-0.9,0-1.4c3.3-0.2,6.6-0.3,9.7-0.5
			c0-5.5,0-10.4,0-15.5c-5.2,0-9.9,0-14.9,0c-0.3,3.7-0.6,7-0.9,10.4c-0.4,0-0.9-0.1-1.3-0.1c0-4.1,0-8.2,0-12.8c6,0,11.6,0,17.2,0
			c0-5.4,0-10.3,0-15.5c-2.4-0.2-4.5-0.3-6.9-0.5c0.1-1.9,0.2-3.4,0.3-5.1C1029.7,787.9,1031.5,787.9,1033.9,787.9z"/>
		<path d="M1033.9,787.9c-2.4,0-4.2,0-6.6,0c-0.1,1.7-0.2,3.2-0.3,5.1c2.4,0.2,4.5,0.3,6.9,0.5c0,5.2,0,10.1,0,15.5
			c-5.6,0-11.2,0-17.2,0c0,4.6,0,8.7,0,12.8c0.4,0,0.9,0.1,1.3,0.1c0.3-3.4,0.6-6.7,0.9-10.4c5,0,9.7,0,14.9,0c0,5,0,9.9,0,15.5
			c-3.1,0.2-6.4,0.3-9.7,0.5c0,0.5,0,0.9,0,1.4c3.1,0.2,6.2,0.4,9.7,0.7c0,5.1,0,10.1,0,15.4c-4.9,0-9.7,0-15.3,0c0-3.3,0-6.6,0-9.9
			c-0.6,0-1.2,0-1.8-0.1c-0.3,3.2-0.5,6.4-0.8,9.9c-5.1,0-10.1,0-15.4,0c0-5.2,0-10.1,0-15.3c3.6-0.2,6.9-0.5,10.2-0.7
			c0-0.4,0-0.8-0.1-1.2c-3.9,0-7.8,0-12.3,0c0,5.5,0,11.1,0,17.1c-5.5,0-10.6,0-15.9,0c-0.2-2.1-0.4-4.2-0.7-6.5c-1.5,0-3,0-4.7,0
			c-0.2,2.1-0.4,4.2-0.7,6.6c-164,0-327.9,0-492.2,0c-0.2-2.1-0.4-4.2-0.6-6.6c-1.7-0.1-3.2-0.2-5.2-0.3c-0.2,2.4-0.4,4.5-0.6,6.9
			c-5.2,0-10.2,0-15.7,0c0-5.9,0-11.5,0-17.3c-4.5,0-8.5,0-12.4,0c0,0.4-0.1,0.8-0.1,1.3c3.2,0.2,6.4,0.5,10,0.7
			c0,5.1,0,10.1,0,15.4c-5,0-9.9,0-15.4,0c-0.2-3.3-0.3-6.6-0.5-9.9c-0.5,0-0.9,0-1.4,0c-0.2,3.1-0.4,6.2-0.6,9.8c-5,0-10,0-15.4,0
			c0-4.9,0-9.8,0-15.2c3.4-0.2,6.9-0.4,10.3-0.6c0-0.5,0-1,0-1.4c-3.3-0.2-6.6-0.4-10.3-0.6c0-5,0-9.9,0-15.3c5,0,10,0,15.4,0
			c0.2,3.5,0.3,6.8,0.5,10.2c0.4,0,0.8,0,1.1,0c0-4,0-8.1,0-12.5c-5.4,0-11,0-17,0c0-5.3,0-10.3,0-15.7c2-0.2,4.1-0.4,6.5-0.6
			c0-1.5,0-3.1,0-4.9c-2.1-0.1-4-0.3-6.4-0.4c0-92.5,0-184.8,0-277.8c1.9-0.2,4.1-0.4,6.6-0.7c0.1-1.6,0.2-3.1,0.3-4.9
			c-2.3-0.2-4.4-0.4-6.9-0.6c0-5.1,0-10.1,0-15.6c5.7,0,11.3,0,17.2,0c0-4.6,0-8.7,0-12.8c-0.4,0-0.8-0.1-1.2-0.1
			c-0.2,3.4-0.5,6.8-0.7,10.5c-5.1,0-10,0-15.3,0c0-5,0-9.9,0-15.7c3.3,0,6.8,0,10.3,0c0-0.5,0-1.1,0.1-1.6
			c-3.4-0.2-6.8-0.5-10.4-0.7c0-5.1,0-10.1,0-15.4c5.1,0,10.1,0,15.9,0c0,3.4,0,6.7,0,10c0.5,0,1,0,1.5,0c0.2-3.3,0.3-6.6,0.5-10.1
			c5.2,0,10.1,0,15.4,0c0,4.9,0,10,0,15.6c-3.4,0-6.8,0-10.2,0c0,0.4-0.1,0.9-0.1,1.3c4,0,8,0,12.5,0c0-5.2,0-10.8,0-16.9
			c5.5,0,10.5,0,16,0c0.2,1.9,0.3,4,0.5,6.4c1.7,0.1,3.3,0.2,5.3,0.3c0.2-2.3,0.3-4.4,0.5-6.8c164,0,327.9,0,492.2,0
			c0.2,2,0.4,4.1,0.6,6.5c1.5,0.1,2.9,0.2,4.7,0.3c0.2-2.3,0.5-4.4,0.7-6.8c5.2,0,10.2,0,15.7,0c0,5.8,0,11.4,0,17.2
			c4.5,0,8.6,0,12.6,0c0-0.4,0-0.8,0.1-1.1c-3.3-0.2-6.6-0.4-10.3-0.6c0-5.1,0-10,0-15.4c5.1,0,10.1,0,15.5,0
			c0.2,3.4,0.4,6.7,0.6,10c0.5,0,1,0,1.5,0c0.2-3.3,0.5-6.6,0.8-10.1c4.9,0,9.9,0,15.1,0c0,5.1,0,10,0,15.7c-3.3,0-6.6,0-9.9,0
			c0,0.5,0,1.1,0,1.6c3.2,0.2,6.5,0.4,10,0.6c0,5.1,0,10.1,0,15.4c-4.9,0-9.8,0-15.1,0c-0.2-3.5-0.4-7-0.6-10.5
			c-0.5,0-0.9,0-1.4,0.1c0,4.1,0,8.1,0,12.7c5.5,0,11.1,0,17,0c0,5.5,0,10.5,0,15.9c-2.3,0.1-4.4,0.3-6.7,0.4c0,1.7,0,3.1,0,5
			c2.1,0.2,4.2,0.4,6.6,0.6C1033.9,602.3,1033.9,694.8,1033.9,787.9z M1032.7,826c0-4.7,0-8.6,0-12.6c-4.3,0-8.4,0-12.8,0
			c0,3.6,0,6.9,0,10.5c-1.8-0.1-3.2-0.2-4.6-0.3c0-5.3,0-10.3,0-15.8c6,0,11.7,0,17.5,0c0-4.5,0-8.4,0-12.6
			c-2.3-0.2-4.4-0.3-6.5-0.4c0-3.1,0-5.8,0-8.6c2.4-0.1,4.3-0.2,6.5-0.3c0-91.6,0-183,0-274.6c-2.3-0.2-4.4-0.3-6.5-0.4
			c0-3,0-5.7,0-8.5c2.4-0.1,4.3-0.3,6.3-0.4c0-4.3,0-8.3,0-12.8c-6,0-11.6,0-17.3,0c0-5.4,0-10.3,0-15.5c1.6,0,3,0,4.9,0
			c0,3.6,0,6.8,0,10.1c4.5,0,8.6,0,12.6,0c0-4.3,0-8.2,0-12.5c-3.6,0-6.9,0-10.3,0c0-1.8,0-3.2,0-4.8c3.7-0.2,7.1-0.3,10.3-0.5
			c0-4.4,0-8.4,0-12.4c-4.3,0-8.2,0-12.4,0c-0.2,3.7-0.3,7.1-0.5,10.7c-1.9-0.2-3.3-0.4-5.1-0.6c0-3.6,0-6.9,0-10.1
			c-4.4,0-8.3,0-12.2,0c0,4.4,0,8.4,0,12.4c10.5,0.6,10.5,0.6,10,4.9c-5,0-10.1,0-15.6,0c0-6,0-11.6,0-17.3c-4.5,0-8.5,0-12.6,0
			c-0.2,2.4-0.4,4.5-0.6,6.7c-3,0-5.6,0-8.4,0c-0.2-2.4-0.4-4.5-0.5-6.8c-163,0-325.9,0-489,0c-0.2,2.4-0.4,4.5-0.6,6.8
			c-2.8,0-5.3,0-8,0c-0.2-2.4-0.4-4.5-0.6-6.8c-4.2,0-8.2,0-12.7,0c0,6,0,11.7,0,17.6c-5.6,0-10.5,0-15.6,0c0-1.6,0-3,0-4.9
			c3.5,0,6.8,0,10.1,0c0-4.5,0-8.6,0-12.6c-4.3,0-8.3,0-12.3,0c-0.2,3.6-0.3,6.9-0.4,10.2c-1.8,0-3.2,0-4.8,0
			c-0.2-3.6-0.3-6.8-0.5-10.2c-4.3,0-8.2,0-12,0c0,4.4,0,8.4,0,12.9c3.5,0,6.6,0,10.1,0c-0.1,1.8-0.1,3.2-0.2,5c-3.5,0-6.7,0-9.9,0
			c0,4.4,0,8.5,0,12.4c4.3,0,8.1,0,12.3,0c0-2.9-0.2-5.4,0.1-7.8c0.1-0.9,1.6-2.5,2.1-2.4c1.1,0.2,2.8,1.4,2.9,2.2
			c0.3,4.4,0.1,8.8,0.1,13.7c-6.4,0-12,0-17.7,0c0,4.4,0,8.4,0,12.4c2.3,0.2,4.4,0.4,6.5,0.7c0,3,0,5.5,0,8.2
			c-2.4,0.2-4.4,0.4-6.5,0.6c0,91.7,0,183.1,0,274.5c2.3,0.2,4.3,0.3,6.4,0.5c0,3,0,5.7,0,8.5c-2.3,0.1-4.3,0.2-6.4,0.4
			c0,4.3,0,8.3,0,12.8c5.9,0,11.5,0,17.6,0c0,4.2-0.1,8,0,11.8c0.2,4.1-1.5,4.9-5.5,3.3c0-3.3,0-6.6,0-9.8c-4.4,0-8.3,0-12.3,0
			c0,4.3,0,8.2,0,12.7c3.5,0,6.7,0,10.3,0c-0.1,2-0.2,3.4-0.3,5.3c-3.6,0-6.9,0-10,0c0,4.5,0,8.4,0,12.3c4.2,0,8.1,0,12.5,0
			c0-3.6,0-6.9,0-10.3c1.9,0,3.3,0,4.9,0c0.2,3.7,0.4,7.1,0.5,10.3c4.5,0,8.4,0,12.4,0c0-4.3,0-8.2,0-12.6c-3.5,0-6.8,0-10.3,0
			c0-1.8,0-3.2,0-4.7c5.3,0,10.3,0,16,0c0,6.1,0,11.8,0,17.3c4.6,0,8.5,0,12.5,0c0.2-2.4,0.4-4.5,0.6-6.5c2.9,0,5.3,0,7.9,0
			c0.2,2.4,0.5,4.5,0.7,6.5c163.2,0,326.1,0,489,0c0.2-2.4,0.4-4.5,0.6-6.5c3,0,5.6,0,8.4,0c0.2,2.4,0.3,4.4,0.5,6.4
			c4.4,0,8.5,0,12.9,0c0-6,0-11.6,0-17.3c5.3,0,10.3,0,15.4,0c0,1.6,0,3,0,4.8c-3.6,0-6.8,0-10.2,0c0,4.5,0,8.6,0,12.5
			c4.4,0,8.4,0,12.9,0c0-3.7,0-7,0-10.6c1.8,0.2,3.2,0.3,5,0.5c0,3.6,0,6.9,0,10.1c4.5,0,8.5,0,12.5,0c0-4.3,0-8.3,0-12.6
			c-3.6,0-6.8,0-10.4,0c0-1.8,0-3.2,0-5C1025.8,826,1029.1,826,1032.7,826z"/>
		<path class="st0" d="M1032.7,826c-3.6,0-6.9,0-10.4,0c0,1.8,0,3.2,0,5c3.5,0,6.8,0,10.4,0c0,4.3,0,8.3,0,12.6c-3.9,0-8,0-12.5,0
			c0-3.2,0-6.5,0-10.1c-1.8-0.2-3.2-0.3-5-0.5c0,3.6,0,6.9,0,10.6c-4.4,0-8.5,0-12.9,0c0-4,0-8,0-12.5c3.4,0,6.7,0,10.2,0
			c0-1.8,0-3.2,0-4.8c-5.2,0-10.1,0-15.4,0c0,5.7,0,11.3,0,17.3c-4.4,0-8.5,0-12.9,0c-0.1-1.9-0.3-4-0.5-6.4c-2.8,0-5.4,0-8.4,0
			c-0.2,2-0.4,4.1-0.6,6.5c-162.9,0-325.8,0-489,0c-0.2-2.1-0.4-4.2-0.7-6.5c-2.6,0-5,0-7.9,0c-0.2,2-0.4,4.1-0.6,6.5
			c-4,0-7.9,0-12.5,0c0-5.5,0-11.2,0-17.3c-5.7,0-10.7,0-16,0c0,1.5,0,2.9,0,4.7c3.5,0,6.8,0,10.3,0c0,4.4,0,8.3,0,12.6
			c-4,0-7.9,0-12.4,0c-0.2-3.2-0.3-6.6-0.5-10.3c-1.7,0-3,0-4.9,0c0,3.4,0,6.7,0,10.3c-4.4,0-8.3,0-12.5,0c0-3.9,0-7.9,0-12.3
			c3.1,0,6.3,0,10,0c0.1-1.9,0.2-3.3,0.3-5.3c-3.6,0-6.8,0-10.3,0c0-4.5,0-8.4,0-12.7c3.9,0,7.9,0,12.3,0c0,3.2,0,6.5,0,9.8
			c4,1.6,5.7,0.8,5.5-3.3c-0.2-3.8,0-7.6,0-11.8c-6.1,0-11.7,0-17.6,0c0-4.5,0-8.5,0-12.8c2.1-0.1,4.1-0.2,6.4-0.4
			c0-2.8,0-5.5,0-8.5c-2.1-0.2-4.1-0.3-6.4-0.5c0-91.4,0-182.8,0-274.5c2-0.2,4.1-0.4,6.5-0.6c0-2.7,0-5.3,0-8.2
			c-2.1-0.2-4.2-0.4-6.5-0.7c0-4.1,0-8,0-12.4c5.7,0,11.3,0,17.7,0c0-4.9,0.2-9.3-0.1-13.7c-0.1-0.9-1.8-2-2.9-2.2
			c-0.6-0.1-2,1.5-2.1,2.4c-0.3,2.4-0.1,4.9-0.1,7.8c-4.2,0-8.1,0-12.3,0c0-3.9,0-7.9,0-12.4c3.3,0,6.4,0,9.9,0
			c0.1-1.8,0.1-3.2,0.2-5c-3.5,0-6.6,0-10.1,0c0-4.5,0-8.5,0-12.9c3.9,0,7.8,0,12,0c0.2,3.4,0.3,6.7,0.5,10.2c1.6,0,3,0,4.8,0
			c0.1-3.4,0.3-6.6,0.4-10.2c4,0,8,0,12.3,0c0,4,0,8,0,12.6c-3.4,0-6.6,0-10.1,0c0,1.9,0,3.3,0,4.9c5.1,0,10.1,0,15.6,0
			c0-5.9,0-11.6,0-17.6c4.5,0,8.5,0,12.7,0c0.2,2.3,0.4,4.4,0.6,6.8c2.7,0,5.2,0,8,0c0.2-2.3,0.4-4.4,0.6-6.8c163.1,0,326,0,489,0
			c0.2,2.3,0.4,4.4,0.5,6.8c2.8,0,5.4,0,8.4,0c0.2-2.2,0.4-4.3,0.6-6.7c4.1,0,8.1,0,12.6,0c0,5.8,0,11.4,0,17.3c5.5,0,10.5,0,15.6,0
			c0.5-4.3,0.5-4.3-10-4.9c0-4,0-8.1,0-12.4c3.9,0,7.8,0,12.2,0c0,3.2,0,6.5,0,10.1c1.8,0.2,3.2,0.4,5.1,0.6
			c0.2-3.7,0.3-7.1,0.5-10.7c4.2,0,8.1,0,12.4,0c0,4,0,8,0,12.4c-3.2,0.2-6.6,0.3-10.3,0.5c0,1.6,0,3,0,4.8c3.5,0,6.7,0,10.3,0
			c0,4.4,0,8.3,0,12.5c-4,0-8,0-12.6,0c0-3.3,0-6.6,0-10.1c-1.9,0-3.2,0-4.9,0c0,5.2,0,10.1,0,15.5c5.7,0,11.3,0,17.3,0
			c0,4.5,0,8.5,0,12.8c-2,0.1-3.9,0.2-6.3,0.4c0,2.8,0,5.5,0,8.5c2.1,0.1,4.2,0.3,6.5,0.4c0,91.6,0,183,0,274.6
			c-2.2,0.1-4.1,0.2-6.5,0.3c0,2.8,0,5.5,0,8.6c2.1,0.1,4.2,0.3,6.5,0.4c0,4.1,0,8.1,0,12.6c-5.8,0-11.5,0-17.5,0
			c0,5.5,0,10.4,0,15.8c1.4,0.1,2.8,0.2,4.6,0.3c0-3.6,0-6.9,0-10.5c4.5,0,8.5,0,12.8,0C1032.7,817.3,1032.7,821.2,1032.7,826z
			 M487.9,841.6c161.8,0,323.3,0,484.9,0c0.2-2.5,0.5-4.5,0.6-6.5c4.4,0,8.3,0,12.3,0c0.2,2.4,0.4,4.5,0.6,6.5c2.9,0,5.5,0,8.6,0
			c0-6,0-11.5,0-17.8c6.2,0,11.9,0,18.2,0c0-6.4,0-12.1,0-18.3c6.2,0,11.8,0,17.4,0c0-3.1,0-5.7,0-8.3c-2.3-0.1-4.3-0.3-6.4-0.4
			c0-4.3,0-8.4,0-12.5c2.4-0.2,4.5-0.5,6.5-0.7c0-90.3,0-180.2,0-270.3c-2.4-0.3-4.5-0.5-6.5-0.7c0-4.2,0-8.2,0-12.2
			c2.4-0.2,4.4-0.5,6.5-0.7c0-2.8,0-5.2,0-8.1c-5.9,0-11.5,0-17.6,0c0-6.3,0-12,0-18.4c-6.3,0-12,0-18,0c0-5.2-0.2-9.6,0.1-14.1
			c0.2-3.1-1.1-4.2-4.1-3.9c-1.5,0.2-2.9,0.2-4.6,0.3c-0.2,2.4-0.4,4.5-0.6,6.7c-4.2,0-8.3,0-12.4,0c-0.2-2.4-0.4-4.5-0.6-6.8
			c-161.7,0-323.1,0-484.7,0c-0.3,2.5-0.5,4.7-0.8,6.7c-4.3,0-8.2,0-12,0c-0.7-7.7-1.8-8.3-9.4-5.9c0,5.5,0,11.1,0,17.3
			c-6.2,0-11.9,0-17.9,0c0,6.2,0,11.9,0,18.1c-6.1,0-11.8,0-17.6,0c0,3.1,0,5.5,0,8.2c2.3,0.2,4.3,0.3,6.4,0.4c0,4.4,0,8.5,0,12.5
			c-2.3,0.2-4.3,0.3-6.3,0.4c0,90.4,0,180.5,0,270.6c2.4,0.2,4.4,0.4,6.4,0.6c0,4.4,0,8.3,0,12.4c-2.3,0.2-4.4,0.4-6.4,0.6
			c0,2.9,0,5.5,0,8.7c6,0,11.7,0,17.8,0c0,6.3,0,11.9,0,18c6.1,0,11.8,0,18.1,0c0,6.3,0,12,0,17.7c3,0,5.5,0,8.2,0
			c0.3-2.3,0.5-4.4,0.7-6.7c4.1,0,8.1,0,12.1,0C487.5,837.4,487.7,839.5,487.9,841.6z M1030.4,823.7c0-3.2,0-5.8,0-8.4
			c-3,0-5.6,0-8.1,0c0,3,0,5.6,0,8.4C1025.1,823.7,1027.5,823.7,1030.4,823.7z M1012.6,841.7c0-3.1,0-5.6,0-8.3c-3,0-5.7,0-8.3,0
			c0,3,0,5.5,0,8.3C1007.1,841.7,1009.6,841.7,1012.6,841.7z M1030.5,841.8c0-3.1,0-5.7,0-8.5c-2.9,0-5.5,0-8.2,0c0,3,0,5.7,0,8.5
			C1025.2,841.8,1027.6,841.8,1030.5,841.8z M1030.7,455.5c-3.1,0-5.6,0-8.3,0c0,3,0,5.6,0,8.2c3,0,5.5,0,8.3,0
			C1030.7,460.9,1030.7,458.5,1030.7,455.5z M1022.2,481.7c2.7,0,5.5,0,8.3,0c0-2.9,0-5.4,0-8.1c-3,0-5.5,0-8.3,0
			C1022.2,476.4,1022.2,478.8,1022.2,481.7z M1012.6,463.8c0-3,0-5.5,0-8.2c-3,0-5.7,0-8.3,0c0,3,0,5.5,0,8.2
			C1007.2,463.8,1009.8,463.8,1012.6,463.8z M438.3,815.3c-3,0-5.5,0-7.9,0c0,3,0,5.7,0,8.3c2.8,0,5.2,0,7.9,0
			C438.3,820.8,438.3,818.3,438.3,815.3z M438.3,833.4c-3,0-5.6,0-7.9,0c0,3,0,5.6,0,8.3c2.8,0,5.2,0,7.9,0
			C438.3,838.9,438.3,836.3,438.3,833.4z M448.2,833.2c0,3.2,0,5.8,0,8.4c2.9,0,5.4,0,8,0c0-3,0-5.7,0-8.4
			C453.3,833.2,450.9,833.2,448.2,833.2z M438.2,455.5c-2.9,0-5.3,0-7.9,0c0,3,0,5.6,0,8.3c2.8,0,5.2,0,7.9,0
			C438.2,461,438.2,458.5,438.2,455.5z M448.3,455.4c0,3.2,0,5.7,0,8.2c2.9,0,5.5,0,8,0c0-2.9,0-5.5,0-8.2
			C453.4,455.4,451,455.4,448.3,455.4z M438.1,481.8c0-2.9,0-5.6,0-8.2c-2.9,0-5.3,0-7.7,0c0,3,0,5.7,0,8.2
			C433.2,481.8,435.6,481.8,438.1,481.8z"/>
		<path d="M487.9,841.6c-0.2-2.1-0.4-4.2-0.6-6.6c-4.1,0-8,0-12.1,0c-0.3,2.3-0.5,4.3-0.7,6.7c-2.7,0-5.1,0-8.2,0
			c0-5.6,0-11.4,0-17.7c-6.3,0-12,0-18.1,0c0-6.2,0-11.8,0-18c-6.1,0-11.8,0-17.8,0c0-3.2,0-5.8,0-8.7c2-0.2,4.1-0.4,6.4-0.6
			c0-4.1,0-8,0-12.4c-2-0.2-4.1-0.4-6.4-0.6c0-90.1,0-180.1,0-270.6c2-0.1,4-0.3,6.3-0.4c0-4,0-8.1,0-12.5c-2.1-0.1-4.1-0.3-6.4-0.4
			c0-2.7,0-5.1,0-8.2c5.8,0,11.6,0,17.6,0c0-6.3,0-11.9,0-18.1c6.1,0,11.8,0,17.9,0c0-6.2,0-11.8,0-17.3c7.6-2.4,8.6-1.7,9.4,5.9
			c3.8,0,7.7,0,12,0c0.2-2,0.5-4.2,0.8-6.7c161.6,0,323,0,484.7,0c0.2,2.2,0.4,4.3,0.6,6.8c4.1,0,8.2,0,12.4,0
			c0.2-2.3,0.4-4.4,0.6-6.7c1.7-0.1,3.1-0.1,4.6-0.3c3-0.3,4.2,0.8,4.1,3.9c-0.2,4.5-0.1,8.9-0.1,14.1c6.1,0,11.8,0,18,0
			c0,6.4,0,12.1,0,18.4c6.2,0,11.8,0,17.6,0c0,2.9,0,5.4,0,8.1c-2.1,0.2-4.2,0.4-6.5,0.7c0,4.1,0,8,0,12.2c2.1,0.2,4.2,0.5,6.5,0.7
			c0,90.1,0,180,0,270.3c-2,0.2-4.1,0.4-6.5,0.7c0,4.1,0,8.2,0,12.5c2.1,0.1,4.1,0.2,6.4,0.4c0,2.7,0,5.2,0,8.3
			c-5.6,0-11.2,0-17.4,0c0,6.2,0,11.9,0,18.3c-6.3,0-12,0-18.2,0c0,6.2,0,11.8,0,17.8c-3,0-5.6,0-8.6,0c-0.2-2-0.4-4.1-0.6-6.5
			c-4,0-8,0-12.3,0c-0.2,1.9-0.4,4-0.6,6.5C811.2,841.6,649.7,841.6,487.9,841.6z M971.4,457.4c-161,0-321.6,0-482.2,0
			c-0.1,2.3-0.2,4.2-0.3,6.3c-5.4,0-10.4,0-15.6,0c-0.2-2.4-0.4-4.5-0.6-6.8c-2,0.2-3.5,0.3-5.5,0.5c0,6,0,11.6,0,17.8
			c-6.2,0-11.9,0-18,0c0,6.2,0,11.8,0,18c-6.1,0-11.9,0-17.9,0c0.2,2.2,0.3,3.8,0.4,5.4c2.4,0.2,4.4,0.3,6.5,0.5
			c0,5.2,0,10.3,0,15.4c-2.4,0.2-4.3,0.4-6.6,0.6c0,89.1,0,178,0,267.2c2.3,0.3,4.4,0.5,6.7,0.8c0,5.1,0,10,0,15.1
			c-2.3,0.2-4.4,0.4-6.7,0.6c0,1.8,0,3.3,0,5.3c5.9,0,11.5,0,17.7,0c0,6.2,0,11.9,0,18.1c6.2,0,11.8,0,18,0c0,6.2,0,11.9,0,18
			c2.3-0.1,3.8-0.2,5.4-0.3c0.2-2.4,0.3-4.3,0.5-6.6c5.3,0,10.3,0,15.5,0c0.2,2.4,0.4,4.5,0.6,6.6c160.8,0,321.2,0,481.9,0
			c0.3-2.3,0.5-4.4,0.7-6.6c5.1,0,10,0,15.2,0c0.2,2.3,0.4,4.4,0.6,6.6c1.9,0,3.4,0,5.4,0c0-5.9,0-11.5,0-17.8c6.1,0,11.9,0,18.2,0
			c0-6.4,0-12.1,0-18.2c6.2,0,11.9,0,17.5,0c0-1.9,0-3.4,0-5c-2.2-0.3-4.3-0.5-6.6-0.8c0-5.1,0-10.1,0-15.1c2.3-0.2,4.4-0.5,6.5-0.7
			c0-89.3,0-178.2,0-267.2c-2.3-0.3-4.4-0.5-6.5-0.7c0-5.3,0-10.3,0-15.2c2.4-0.2,4.5-0.4,6.8-0.6c-0.1-2-0.2-3.6-0.3-5.6
			c-6,0-11.6,0-17.8,0c0-6.2,0-11.9,0-18c-6.2,0-11.8,0-18,0c0-6.2,0-11.9,0-18c-2.2,0.2-3.7,0.3-5.3,0.5c-0.2,2.4-0.4,4.3-0.6,6.4
			c-5.1,0-10.1,0-15.2,0C971.7,461.6,971.6,459.7,971.4,457.4z"/>
		<path d="M1030.4,823.7c-2.9,0-5.3,0-8.1,0c0-2.8,0-5.4,0-8.4c2.5,0,5,0,8.1,0C1030.4,817.9,1030.4,820.6,1030.4,823.7z
			 M1028.8,816.6c-1.9,0.2-3.3,0.3-5.1,0.4c0.1,1.9,0.2,3.4,0.3,5.2c1.9-0.1,3.3-0.2,4.8-0.3
			C1028.8,820.1,1028.8,818.7,1028.8,816.6z"/>
		<path d="M1012.6,841.7c-3,0-5.5,0-8.3,0c0-2.8,0-5.4,0-8.3c2.7,0,5.4,0,8.3,0C1012.6,836.1,1012.6,838.6,1012.6,841.7z
			 M1005.9,839.8c5,1.2,6-0.7,4.7-4.7c-1.6,0-3,0-4.7,0C1005.9,836.7,1005.9,838.1,1005.9,839.8z"/>
		<path d="M1030.5,841.8c-2.9,0-5.3,0-8.2,0c0-2.8,0-5.5,0-8.5c2.7,0,5.3,0,8.2,0C1030.5,836.1,1030.5,838.6,1030.5,841.8z
			 M1024,840.2c1.9-0.1,3.3-0.2,4.7-0.3c0-1.8,0-3.2,0-4.8c-1.7,0-3.1,0-4.7,0C1024,836.7,1024,838.1,1024,840.2z"/>
		<path d="M1030.7,455.5c0,3,0,5.4,0,8.2c-2.8,0-5.3,0-8.3,0c0-2.5,0-5.2,0-8.2C1025.1,455.5,1027.6,455.5,1030.7,455.5z
			 M1029.1,457.4c-2.1,0-3.6,0-5.4,0c0.1,1.8,0.2,3.2,0.3,4.9c1.7,0,3.1,0,4.8,0C1028.9,460.7,1029,459.2,1029.1,457.4z"/>
		<path d="M1022.2,481.7c0-2.9,0-5.3,0-8.1c2.8,0,5.3,0,8.3,0c0,2.7,0,5.2,0,8.1C1027.7,481.7,1024.9,481.7,1022.2,481.7z
			 M1028.8,480.6c0-2,0-3.5,0-5.3c-1.8,0-3.3,0-5.1,0c0.1,1.9,0.2,3.5,0.4,5.3C1025.7,480.6,1027,480.6,1028.8,480.6z"/>
		<path d="M1012.6,463.8c-2.9,0-5.4,0-8.3,0c0-2.6,0-5.2,0-8.2c2.7,0,5.4,0,8.3,0C1012.6,458.3,1012.6,460.7,1012.6,463.8z
			 M1006,457.2c0,1.9,0,3.6,0,5.5c1.9-0.2,3.3-0.3,4.7-0.4c0-1.9,0-3.4,0-5.1C1009.2,457.2,1007.9,457.2,1006,457.2z"/>
		<path d="M438.3,815.3c0,2.9,0,5.5,0,8.3c-2.7,0-5.1,0-7.9,0c0-2.6,0-5.3,0-8.3C432.8,815.3,435.3,815.3,438.3,815.3z M431.8,816.8
			c-1.4,5.1,0.7,5.9,4.9,4.9c0-1.6,0-3.1,0-4.9C435,816.8,433.6,816.8,431.8,816.8z"/>
		<path d="M438.3,833.4c0,2.9,0,5.5,0,8.3c-2.7,0-5.2,0-7.9,0c0-2.7,0-5.3,0-8.3C432.7,833.4,435.2,833.4,438.3,833.4z M436.7,835.1
			c-1.8,0-3.3,0-5.1,0c0,1.8,0,3.3,0,5.1c1.9-0.1,3.5-0.2,5.1-0.3C436.7,838.1,436.7,836.7,436.7,835.1z"/>
		<path d="M448.2,833.2c2.6,0,5.1,0,8,0c0,2.7,0,5.4,0,8.4c-2.6,0-5.1,0-8,0C448.2,839,448.2,836.4,448.2,833.2z M454.8,834.7
			c-2.1,0.2-3.6,0.3-5.5,0.4c0.1,1.8,0.1,3.2,0.2,4.8c1.9,0,3.5,0,5.3,0C454.8,838.2,454.8,836.8,454.8,834.7z"/>
		<path d="M438.2,455.5c0,3,0,5.6,0,8.3c-2.7,0-5.2,0-7.9,0c0-2.7,0-5.4,0-8.3C432.9,455.5,435.3,455.5,438.2,455.5z M437,462.3
			c-0.1-2-0.2-3.5-0.2-5.4c-1.9,0.1-3.5,0.2-5.4,0.3c0.1,1.9,0.2,3.4,0.3,5.1C433.4,462.3,434.9,462.3,437,462.3z"/>
		<path d="M448.3,455.4c2.7,0,5.1,0,8,0c0,2.7,0,5.2,0,8.2c-2.5,0-5.1,0-8,0C448.3,461.2,448.3,458.6,448.3,455.4z M454.8,456.9
			c-2.1,0.1-3.7,0.2-5.6,0.4c0.1,1.9,0.2,3.4,0.4,5.3c2-0.1,3.6-0.2,5.3-0.3C454.8,460.4,454.8,459,454.8,456.9z"/>
		<path d="M438.1,481.8c-2.5,0-4.9,0-7.7,0c0-2.6,0-5.2,0-8.2c2.4,0,4.8,0,7.7,0C438.1,476.2,438.1,478.9,438.1,481.8z M431.2,475.2
			c0.1,2.1,0.2,3.7,0.3,5.3c1.9,0,3.5,0,5,0c0-2,0-3.7,0-5.3C434.8,475.2,433.3,475.2,431.2,475.2z"/>
		<path class="st0" d="M971.4,457.4c0.2,2.3,0.4,4.3,0.6,6.4c5.1,0,10,0,15.2,0c0.2-2.1,0.4-4.1,0.6-6.4c1.6-0.1,3.1-0.3,5.3-0.5
			c0,6.1,0,11.8,0,18c6.2,0,11.8,0,18,0c0,6.2,0,11.9,0,18c6.2,0,11.8,0,17.8,0c0.1,2,0.2,3.6,0.3,5.6c-2.3,0.2-4.4,0.4-6.8,0.6
			c0,5,0,9.9,0,15.2c2,0.2,4.1,0.5,6.5,0.7c0,89,0,177.9,0,267.2c-2.1,0.2-4.2,0.4-6.5,0.7c0,5,0,10,0,15.1c2.3,0.3,4.4,0.5,6.6,0.8
			c0,1.7,0,3.1,0,5c-5.6,0-11.2,0-17.5,0c0,6.1,0,11.8,0,18.2c-6.3,0-12,0-18.2,0c0,6.3,0,11.9,0,17.8c-2,0-3.6,0-5.4,0
			c-0.2-2.2-0.4-4.3-0.6-6.6c-5.1,0-10,0-15.2,0c-0.2,2.3-0.5,4.4-0.7,6.6c-160.7,0-321.1,0-481.9,0c-0.2-2.1-0.4-4.2-0.6-6.6
			c-5.1,0-10.2,0-15.5,0c-0.2,2.2-0.3,4.2-0.5,6.6c-1.6,0.1-3.2,0.2-5.4,0.3c0-6.1,0-11.8,0-18c-6.3,0-11.9,0-18,0
			c0-6.2,0-11.9,0-18.1c-6.2,0-11.8,0-17.7,0c0-2,0-3.5,0-5.3c2.2-0.2,4.3-0.4,6.7-0.6c0-5.1,0-10,0-15.1c-2.3-0.3-4.4-0.5-6.7-0.8
			c0-89.2,0-178.1,0-267.2c2.2-0.2,4.2-0.4,6.6-0.6c0-5.1,0-10.1,0-15.4c-2.1-0.2-4.1-0.3-6.5-0.5c-0.1-1.6-0.2-3.2-0.4-5.4
			c6,0,11.7,0,17.9,0c0-6.2,0-11.8,0-18c6.1,0,11.9,0,18,0c0-6.2,0-11.8,0-17.8c2-0.2,3.6-0.3,5.5-0.5c0.2,2.3,0.4,4.4,0.6,6.8
			c5.2,0,10.2,0,15.6,0c0.1-2.1,0.2-4,0.3-6.3C649.8,457.4,810.4,457.4,971.4,457.4z"/>
		<path class="st0" d="M1028.8,816.6c0,2.1,0,3.5,0,5.2c-1.5,0.1-2.9,0.2-4.8,0.3c-0.1-1.8-0.2-3.3-0.3-5.2
			C1025.5,816.9,1026.9,816.7,1028.8,816.6z"/>
		<path class="st0" d="M1005.9,839.8c0-1.7,0-3,0-4.7c1.6,0,3.1,0,4.7,0C1011.8,839.1,1010.9,841,1005.9,839.8z"/>
		<path class="st0" d="M1024,840.2c0-2.1,0-3.5,0-5.1c1.7,0,3.1,0,4.7,0c0,1.6,0,3,0,4.8C1027.3,839.9,1025.9,840,1024,840.2z"/>
		<path class="st0" d="M1029.1,457.4c-0.1,1.9-0.2,3.3-0.3,4.9c-1.7,0-3.1,0-4.8,0c-0.1-1.7-0.2-3.1-0.3-4.9
			C1025.5,457.4,1027,457.4,1029.1,457.4z"/>
		<path class="st0" d="M1028.8,480.6c-1.8,0-3.1,0-4.8,0c-0.1-1.7-0.2-3.3-0.4-5.3c1.8,0,3.4,0,5.1,0
			C1028.8,477.1,1028.8,478.6,1028.8,480.6z"/>
		<path class="st0" d="M1006,457.2c1.9,0,3.1,0,4.7,0c0,1.7,0,3.2,0,5.1c-1.5,0.1-2.9,0.2-4.7,0.4C1006,460.7,1006,459,1006,457.2z"
			/>
		<path class="st0" d="M431.8,816.8c1.8,0,3.2,0,4.9,0c0,1.8,0,3.3,0,4.9C432.5,822.8,430.4,821.9,431.8,816.8z"/>
		<path class="st0" d="M436.7,835.1c0,1.6,0,3,0,4.8c-1.6,0.1-3.2,0.2-5.1,0.3c0-1.8,0-3.3,0-5.1C433.4,835.1,435,835.1,436.7,835.1
			z"/>
		<path class="st0" d="M454.8,834.7c0,2.1,0,3.5,0,5.2c-1.8,0-3.4,0-5.3,0c-0.1-1.6-0.1-3-0.2-4.8
			C451.1,835,452.7,834.9,454.8,834.7z"/>
		<path class="st0" d="M437,462.3c-2.1,0-3.6,0-5.4,0c-0.1-1.7-0.2-3.2-0.3-5.1c1.9-0.1,3.5-0.2,5.4-0.3
			C436.8,458.8,436.9,460.4,437,462.3z"/>
		<path class="st0" d="M454.8,456.9c0,2.1,0,3.5,0,5.4c-1.6,0.1-3.2,0.2-5.3,0.3c-0.1-1.9-0.2-3.4-0.4-5.3
			C451.1,457.2,452.7,457.1,454.8,456.9z"/>
		<path class="st0" d="M431.2,475.2c2.1,0,3.5,0,5.4,0c0,1.6,0,3.3,0,5.3c-1.5,0-3.1,0-5,0C431.5,478.9,431.4,477.3,431.2,475.2z"/>
	</g>
</g>
</svg>
